#tb 0: 1/25
0,          0,          0,        1,    38016, 0x6811161f
0,          1,          1,        1,    38016, 0x243a0d4e
0,          2,          2,        1,    38016, 0x0bc700de
0,          3,          3,        1,    38016, 0x30db1659
0,          4,          4,        1,    38016, 0xf88d3f1a
0,          5,          5,        1,    38016, 0xb37d5bd2
0,          6,          6,        1,    38016, 0x93f46c04
0,          7,          7,        1,    38016, 0xdb9878d0
0,          8,          8,        1,    38016, 0x92509f3a
0,          9,          9,        1,    38016, 0xd63badea
0,         10,         10,        1,    38016, 0xb942b664
0,         11,         11,        1,    38016, 0x703bc4ee
0,         12,         12,        1,    38016, 0xa78abfcd
0,         13,         13,        1,    38016, 0x4e1b96d8
0,         14,         14,        1,    38016, 0xaed371ac
0,         15,         15,        1,    38016, 0x2c917f89
0,         16,         16,        1,    38016, 0x57c29c96
0,         17,         17,        1,    38016, 0xaf1fb16a
0,         18,         18,        1,    38016, 0x257eb325
0,         19,         19,        1,    38016, 0x7701b0f9
0,         20,         20,        1,    38016, 0x7074c151
0,         21,         21,        1,    38016, 0x9778b1fe
0,         22,         22,        1,    38016, 0x9c2e8c0c
0,         23,         23,        1,    38016, 0x394276e9
0,         24,         24,        1,    38016, 0x2f5157bc
0,         25,         25,        1,    38016, 0xfb313ee7
0,         26,         26,        1,    38016, 0xbc6349c3
0,         27,         27,        1,    38016, 0xdca95a0c
0,         28,         28,        1,    38016, 0x53c46d45
0,         29,         29,        1,    38016, 0x62867764
0,         30,         30,        1,    38016, 0x87847fa3
0,         31,         31,        1,    38016, 0x74527d90
0,         32,         32,        1,    38016, 0x5c7a7779
0,         33,         33,        1,    38016, 0xeafd7e73
0,         34,         34,        1,    38016, 0x63aa7d06
0,         35,         35,        1,    38016, 0x2bc06fd2
0,         36,         36,        1,    38016, 0x058a7eae
0,         37,         37,        1,    38016, 0xc51a6f85
0,         38,         38,        1,    38016, 0xb49e6b0b
0,         39,         39,        1,    38016, 0x881a5997
0,         40,         40,        1,    38016, 0x5e4956b7
0,         41,         41,        1,    38016, 0x835441a0
0,         42,         42,        1,    38016, 0x212933cd
0,         43,         43,        1,    38016, 0x914031bd
0,         44,         44,        1,    38016, 0x29b63d29
0,         45,         45,        1,    38016, 0x03a03b60
0,         46,         46,        1,    38016, 0x282e1a0f
0,         47,         47,        1,    38016, 0x8964f214
0,         48,         48,        1,    38016, 0x23a9c5f9
0,         49,         49,        1,    38016, 0x04f9a780
